<svg id="Capa_1" enable-background="new 0 0 512 512" height="512" viewBox="0 0 512 512" width="512" xmlns="http://www.w3.org/2000/svg"><g><path d="m311.76 49.82-19.99 22.37-20.77-18.55v72.36h-30v-72.36l-20.77 18.55-19.99-22.37 55.76-49.82z" fill="#48578b"/><path d="m311.76 462.18-55.76 49.82-55.76-49.82 19.99-22.37 20.77 18.55v-72.36h30v72.36l20.77-18.55z" fill="#48578b"/><path d="m291.77 439.81 19.99 22.37-55.76 49.82v-126h15v72.36z" fill="#2a396c"/><path d="m271 126h-15v-126l55.76 49.82-19.99 22.37-20.77-18.55z" fill="#2a396c"/><path d="m114.703 133.121-9.378-28.496-71.027 23.375 15.269 73.199 29.369-6.126-5.688-27.265 62.669 36.182 15-25.98-62.67-36.182z" fill="#48578b"/><path d="m433.064 316.927 5.688 27.265-62.669-36.182-15 25.98 62.67 36.182-26.456 8.707 9.378 28.496 71.027-23.375-15.269-73.199z" fill="#2a396c"/><path d="m376.083 203.99 62.669-36.182-5.688 27.265 29.369 6.126 15.269-73.199-71.027-23.375-9.378 28.496 26.456 8.707-62.67 36.182z" fill="#2a396c"/><path d="m135.917 308.01-62.669 36.182 5.688-27.265-29.369-6.126-15.269 73.199 71.027 23.375 9.378-28.496-26.456-8.707 62.67-36.182z" fill="#48578b"/><path d="m256 95.36c-88.58 0-160.64 72.06-160.64 160.64s72.06 160.64 160.64 160.64 160.64-72.06 160.64-160.64-72.06-160.64-160.64-160.64z" fill="#e6f6ff"/><path d="m416.64 256c0 88.58-72.06 160.64-160.64 160.64v-321.28c88.58 0 160.64 72.06 160.64 160.64z" fill="#bee3ed"/><path d="m256 241c-44.11 0-80 35.89-80 80v15h160v-15c0-44.11-35.89-80-80-80z" fill="#fd7b51"/><path d="m336 321v15h-80v-95c44.11 0 80 35.89 80 80z" fill="#fd465f"/><path d="m256 176c-26.19 0-47.5 21.31-47.5 47.5s21.31 47.5 47.5 47.5 47.5-21.31 47.5-47.5-21.31-47.5-47.5-47.5z" fill="#fed9b6"/><path d="m303.5 223.5c0 26.19-21.31 47.5-47.5 47.5v-95c26.19 0 47.5 21.31 47.5 47.5z" fill="#febf85"/></g></svg>