<svg height="512" viewBox="0 0 64 64" width="512" xmlns="http://www.w3.org/2000/svg"><g id="Fill_Outline" data-name="Fill Outline"><g id="Color"><circle cx="32" cy="52" fill="#f9dbaf" r="3"/><path d="m32 55a3 3 0 0 0 -3 3v3h6v-3a3 3 0 0 0 -3-3z" fill="#f9dbaf"/><path d="m41 59h6v-6h-4l-2 3z" fill="#ef5350"/><path d="m47 53v6h-6v-3h1a3 3 0 0 0 3-3z" fill="#e53935"/><path d="m47 50h14v9h-14z" fill="#fcea42"/><path d="m61 56v3h-14v-9h2a6 6 0 0 0 6 6z" fill="#fdc741"/><circle cx="56" cy="59" fill="#656b76" r="2"/><circle cx="45" cy="59" fill="#656b76" r="2"/><circle cx="56" cy="59" fill="#d0d8da" r="1"/><circle cx="45" cy="59" fill="#d0d8da" r="1"/><path d="m37 35.617h-10a4 4 0 0 1 -4-4v-8a9 9 0 0 1 9-9 9 9 0 0 1 9 9v8a4 4 0 0 1 -4 4z" fill="#fcea42"/><path d="m41 31.617a4 4 0 0 1 -4 4h-10a4 4 0 0 1 -4-4v-8a9 9 0 0 1 9-9 8.9 8.9 0 0 1 5.18 1.65 2.022 2.022 0 0 1 -1.14.35h-4.93a3.066 3.066 0 0 0 -3.11 2.97v3.03a9 9 0 0 0 9 9z" fill="#fdc741"/><path d="m36 15.617h-8a2 2 0 0 1 -2-2 2 2 0 0 1 2-2h8a2 2 0 0 1 2 2 2 2 0 0 1 -2 2z" fill="#48cae4"/><path d="m39 4.617-2.367-1.183a3.185 3.185 0 0 0 -3.163.179 3.187 3.187 0 0 1 -3.184.169l-.853-.435a3.187 3.187 0 0 0 -2.871-.011l-2.562 1.281.084.085a14.883 14.883 0 0 1 3.916 6.915h8a7.228 7.228 0 0 1 1.029-3.717z" fill="#fcea42"/><path d="m38 13.617a2.015 2.015 0 0 1 -2 2h-8a2.006 2.006 0 0 1 -2-2 2.015 2.015 0 0 1 2-2 2.006 2.006 0 0 0 2 2z" fill="#00b4d8"/><path d="m36.32 9.517a7.081 7.081 0 0 0 -.32 2.1h-8a14.85 14.85 0 0 0 -3.92-6.917l-.08-.083 2.49-1.25a13.6 13.6 0 0 0 9.83 6.15z" fill="#fdc741"/><path d="m3 49h12v12h-12z" fill="#fcea42"/><path d="m7 49h4v4h-4z" fill="#fffa48"/><path d="m15 55h6v6h-6z" fill="#fdc741"/><path d="m21 59v2h-6v-6h2v1a3 3 0 0 0 3 3z" fill="#efad1b"/><path d="m13 57v2h-1a7 7 0 0 1 -7-7v-3h-2v12h12v-6a2 2 0 0 0 -2 2z" fill="#fdc741"/><g fill="#edb88e"><path d="m34.87 52.87a3 3 0 1 1 -3.74-3.74 3.1 3.1 0 0 0 -.13.87 3 3 0 0 0 3 3 3.1 3.1 0 0 0 .87-.13z"/><path d="m35 59v2h-6v-3a3 3 0 0 1 3-3 2.956 2.956 0 0 1 1.04.19 3.062 3.062 0 0 1 -1.9.8 3.98 3.98 0 0 0 3.86 3.01z"/></g></g><g id="Outline_copy" fill="#323232" data-name="Outline copy"><path d="m27 36.617h10a5.006 5.006 0 0 0 5-5v-1.617a1 1 0 0 0 -2 0v1.617a3 3 0 0 1 -3 3h-10a3 3 0 0 1 -3-3v-8a7.988 7.988 0 0 1 4.152-7h7.7a7.991 7.991 0 0 1 4.15 7v2.383a1 1 0 0 0 2 0v-2.383a9.958 9.958 0 0 0 -3.881-7.878 2.99 2.99 0 0 0 -1.065-4.921 6.222 6.222 0 0 1 .833-2.4l1.97-3.285a1 1 0 0 0 -.41-1.409l-2.369-1.185a4.2 4.2 0 0 0 -4.156.236 2.19 2.19 0 0 1 -2.184.116l-.853-.435a4.205 4.205 0 0 0 -3.772-.014l-2.562 1.281a1 1 0 0 0 -.26 1.6l.084.085a13.866 13.866 0 0 1 2.323 3.077 1 1 0 0 0 1.749-.97 15.828 15.828 0 0 0 -1.8-2.6l1.367-.684a2.2 2.2 0 0 1 1.97.007l.853.435a4.2 4.2 0 0 0 4.183-.222 2.2 2.2 0 0 1 2.17-.123l1.4.7-1.42 2.36a8.182 8.182 0 0 0 -1.1 3.229h-1.685l.561-1.683a1 1 0 0 0 -1.825-.8 4.622 4.622 0 0 0 -1.676-1.415 1 1 0 1 0 -.894 1.789 2.589 2.589 0 0 1 1.414 2.105h-2.967a3 3 0 0 0 -2.118 5.122 9.957 9.957 0 0 0 -3.882 7.882v8a5.006 5.006 0 0 0 5 5zm1-24h8a1 1 0 0 1 0 2h-8a1 1 0 0 1 0-2z"/><path d="m32 22.617a1 1 0 0 1 1 1 1 1 0 1 0 2 0 3 3 0 0 0 -2-2.817v-1.183a1 1 0 0 0 -2 0v1.183a2.993 2.993 0 0 0 1 5.816 1 1 0 1 1 -1 1 1 1 0 0 0 -2 0 3 3 0 0 0 2 2.816v1.184a1 1 0 0 0 2 0v-1.183a2.993 2.993 0 0 0 -1-5.816 1 1 0 0 1 0-2z"/><path d="m36 52a4 4 0 1 0 -6.618 3 3.975 3.975 0 0 0 -1.382 3v3a1 1 0 0 0 1 1h6a1 1 0 0 0 1-1v-3a3.975 3.975 0 0 0 -1.382-3 3.975 3.975 0 0 0 1.382-3zm-2 6v2h-4v-2a2 2 0 0 1 4 0zm-4-6a2 2 0 1 1 2 2 2 2 0 0 1 -2-2z"/><path d="m9 46a1 1 0 0 0 1-1v-2h21v2a1 1 0 0 0 2 0v-2h21v3a1 1 0 0 0 2 0v-4a1 1 0 0 0 -1-1h-22v-1a1 1 0 0 0 -2 0v1h-22a1 1 0 0 0 -1 1v3a1 1 0 0 0 1 1z"/><path d="m61 49h-14a1 1 0 0 0 -1 1v2h-3a1 1 0 0 0 -.832.445l-2 3a1.006 1.006 0 0 0 -.168.555v3a1 1 0 0 0 1 1h1.184a2.982 2.982 0 0 0 5.632 0h2.184a1 1 0 0 0 0-2h-2v-7h12v7h-1.184a3 3 0 1 0 0 2h2.184a1 1 0 0 0 1-1v-9a1 1 0 0 0 -1-1zm-19 7.3 1.535-2.3h2.465v2.184a2.947 2.947 0 0 0 -3.816 1.816h-.184zm3 3.7a1 1 0 1 1 1-1 1 1 0 0 1 -1 1zm11 0a1 1 0 1 1 1-1 1 1 0 0 1 -1 1z"/><path d="m21 54h-5v-5a1 1 0 0 0 -1-1h-12a1 1 0 0 0 -1 1v12a1 1 0 0 0 1 1h8a1 1 0 0 0 0-2h-7v-10h2v3a1 1 0 0 0 1 1h4a1 1 0 0 0 1-1v-3h2v11a1 1 0 0 0 1 1h6a1 1 0 0 0 1-1v-6a1 1 0 0 0 -1-1zm-11-2h-2v-2h2zm10 8h-4v-4h4z"/></g></g></svg>