<svg id="Capa_1" enable-background="new 0 0 512 512" height="512" viewBox="0 0 512 512" width="512" xmlns="http://www.w3.org/2000/svg"><g><g><path d="m125.754 357.856v143.409c0 5.928 4.806 10.735 10.735 10.735h17.82c5.929 0 10.735-4.806 10.735-10.735v-38.654c0-2.318.809-4.563 2.287-6.348l23.428-28.3c1.478-1.785 2.287-4.031 2.287-6.348v-63.759z" fill="#365e7d"/><path d="m125.754 357.856h67.291v39.397h-67.291z" fill="#2b4d66"/></g><g><path d="m166.609 410.339h-14.421c-4.268 0-7.726-3.459-7.726-7.726s3.459-7.726 7.726-7.726h14.421c4.268 0 7.726 3.459 7.726 7.726s-3.458 7.726-7.726 7.726z" fill="#81a7c6"/></g><path d="m220.801 378.46h-103.683c-6.176 0-11.183-5.007-11.183-11.183v-104.266c0-6.176 5.007-11.183 11.183-11.183h103.684c1.851 0 3.351 1.5 3.351 3.351v119.93c-.001 1.85-1.501 3.351-3.352 3.351z" fill="#81a7c6"/><path d="m203.543 251.828v126.632h17.258c1.851 0 3.351-1.5 3.351-3.351v-119.93c0-1.851-1.5-3.351-3.351-3.351z" fill="#5c90b9"/><path d="m70.981 282.47-9.278 13.756c-.795 1.179-1.22 2.569-1.22 3.992v29.853c0 1.422.425 2.812 1.22 3.992l9.278 13.756c1.327 1.968 3.545 3.147 5.919 3.147h29.034c0-42.583 0-28.82 0-71.643h-29.034c-2.374-.001-4.592 1.179-5.919 3.147z" fill="#ffd064"/><path d="m89.276 350.965h16.658c0-42.583 0-28.82 0-71.643h-16.658z" fill="#ebb044"/><path d="m363.791 426.874-139.639-56.255v-110.951l139.639-56.254z" fill="#ffd064"/><path d="m342.279 212.08v206.127l21.512 8.667v-223.46z" fill="#ebb044"/><path d="m402.234 447.97h-30.687c-4.284 0-7.757-3.473-7.757-7.757v-250.14c0-4.284 3.473-7.757 7.757-7.757h30.687c4.284 0 7.757 3.473 7.757 7.757v250.14c0 4.284-3.473 7.757-7.757 7.757z" fill="#365e7d"/><path d="m402.234 182.317h-18.129c4.284 0 7.757 3.473 7.757 7.757v250.14c0 4.284-3.473 7.757-7.757 7.757h18.129c4.284 0 7.757-3.473 7.757-7.757v-250.14c0-4.284-3.473-7.757-7.757-7.757z" fill="#2b4d66"/><path d="m417.797 353.045h-7.806v-75.802h7.806c20.932 0 37.901 16.969 37.901 37.901 0 20.932-16.969 37.901-37.901 37.901z" fill="#ffd064"/><path d="m426.549 278.27c-2.811-.665-5.738-1.027-8.751-1.027h-7.807v75.802h7.807c3.014 0 5.941-.362 8.751-1.027z" fill="#ebb044"/><g><path d="m144.434 361.02c-4.268 0-7.726-3.459-7.726-7.726v-76.3c0-4.268 3.459-7.726 7.726-7.726s7.726 3.459 7.726 7.726v76.3c0 4.267-3.458 7.726-7.726 7.726z" fill="#ffd064"/></g><circle cx="102.428" cy="61.304" fill="#ffd064" r="61.304"/><path d="m102.428 0c-4.151 0-8.203.418-12.122 1.204 28.05 5.627 49.182 30.394 49.182 60.1s-21.132 54.473-49.182 60.1c3.919.786 7.971 1.204 12.122 1.204 33.858 0 61.304-27.447 61.304-61.304s-27.447-61.304-61.304-61.304z" fill="#ebb044"/><circle cx="258.091" cy="61.304" fill="#61a2f9" r="61.304"/><path d="m258.091 0c-4.151 0-8.203.418-12.122 1.204 28.05 5.627 49.182 30.394 49.182 60.1s-21.132 54.473-49.182 60.1c3.919.786 7.971 1.204 12.122 1.204 33.858 0 61.304-27.447 61.304-61.304s-27.447-61.304-61.304-61.304z" fill="#5490f9"/><g><path d="m274.52 69.03h-16.429c-4.268 0-7.726-3.459-7.726-7.726v-32.762c0-4.268 3.459-7.726 7.726-7.726s7.726 3.459 7.726 7.726v25.035h8.702c4.268 0 7.726 3.459 7.726 7.726s-3.458 7.727-7.725 7.727z" fill="#f9f6f9"/></g><path d="m429.235 114.016c-2.088 3.357-4.517 8.86-9.301 8.503h-12.361c-6.543.369-7.353-8.224-11.863-10.995l-16.426-9.484c-4.652-2.52-12.504 1.074-15.453-4.776l-6.181-10.705c-3.591-5.482 3.446-10.48 3.59-15.771v-18.967c-.144-5.289-7.182-10.292-3.59-15.771l6.181-10.705c2.952-5.851 10.799-2.256 15.453-4.776l16.426-9.484c4.508-2.769 5.322-11.365 11.863-10.995h12.361c6.543-.369 7.353 8.224 11.863 10.995l16.426 9.484c4.652 2.52 12.504-1.074 15.453 4.776l6.181 10.705c3.591 5.482-3.446 10.48-3.59 15.771v18.967c.144 5.289 7.182 10.292 3.59 15.771l-6.181 10.705c-2.952 5.851-10.799 2.256-15.453 4.776l-16.426 9.484c-1.048.605-1.929 1.461-2.562 2.492z" fill="#365e7d"/><circle cx="413.753" cy="61.304" fill="#81a7c6" r="22.705"/><g><path d="m166.611 166.826c-2.073 0-4.14-.829-5.662-2.467l-22.175-23.865c-2.904-3.127-2.725-8.015.4-10.92 3.127-2.905 8.015-2.724 10.92.4l22.175 23.865c2.904 3.127 2.725 8.015-.4 10.92-1.488 1.383-3.376 2.067-5.258 2.067z" fill="#2b4d66"/></g><g><path d="m344.525 166.826c-1.882 0-3.77-.684-5.258-2.066-3.126-2.904-3.305-7.793-.4-10.92l22.175-23.865c2.904-3.125 7.794-3.305 10.919-.4 3.126 2.904 3.305 7.793.4 10.92l-22.175 23.865c-1.522 1.637-3.589 2.466-5.661 2.466z" fill="#2b4d66"/></g><g><path d="m258.091 175.619c-4.268 0-7.726-3.459-7.726-7.726v-19.452c0-4.268 3.459-7.726 7.726-7.726s7.726 3.459 7.726 7.726v19.452c0 4.267-3.458 7.726-7.726 7.726z" fill="#2b4d66"/></g><path d="m109.357 53.778c-3.25-1.149-7.185-2.641-9.351-4.159-.004-.245.046-.639.259-1.04.261-.492.548-.578.656-.611 4.663-1.406 9.288-.012 9.501.054 4.018 1.336 8.375-.815 9.748-4.833 1.38-4.038-.775-8.431-4.812-9.81-.447-.153-2.615-.846-5.769-1.23-.92-3.238-3.893-5.612-7.426-5.612-4.155 0-7.534 3.281-7.71 7.393-4.94 2.233-8.54 6.826-9.595 12.427-1.117 5.931.887 11.731 5.234 15.141 3.794 2.974 9.025 5.049 14.115 6.849 1.128.398 2.131 1.013 1.831 2.793-.206 1.229-1.267 3.316-3.927 3.333-3.671.022-4.296-.069-6.836-1.731-3.568-2.336-8.359-1.335-10.695 2.236-2.336 3.57-1.335 8.359 2.236 10.695 2.845 1.861 5.232 2.934 7.672 3.539.432 3.859 3.701 6.859 7.675 6.859 4.268 0 7.726-3.459 7.726-7.726v-.061c5.865-2.563 10.269-7.926 11.388-14.582 1.49-8.871-3.301-16.877-11.92-19.924z" fill="#ebb044"/></g></svg>