<svg height="482pt" viewBox="0 0 482 482.80343" width="482pt" xmlns="http://www.w3.org/2000/svg"><path d="m292.339844 299.992188-19.683594-121.652344h-244.515625l-19.664063 121.523437-.03125.128907c-2.683593 10.101562-4.042968 20.488281-4.042968 30.921874v.003907c0 25.589843 21.410156 46.332031 47.824218 46.332031h196.332032c26.410156 0 47.820312-20.742188 47.820312-46.332031v-.003907c.003906-10.429687-1.355468-20.820312-4.039062-30.921874zm0 0" fill="#4671c6"/><path d="m248.558594 381.25h-196.332032c-28.578124 0-51.824218-22.578125-51.824218-50.332031 0-10.75 1.398437-21.484375 4.160156-31.890625l19.628906-121.324219c.3125-1.9375 1.984375-3.363281 3.949219-3.363281h244.515625c1.964844 0 3.636719 1.425781 3.949219 3.363281l19.652343 121.457031c2.734376 10.371094 4.125 21.054688 4.125 31.757813 0 27.753906-23.25 50.332031-51.824218 50.332031zm-217.011719-198.910156-19.121094 118.160156c-.023437.136719-.050781.269531-.085937.398438-2.621094 9.882812-3.9375 19.9375-3.9375 30.015624 0 23.34375 19.660156 42.335938 43.824218 42.335938h196.332032c24.164062 0 43.824218-18.988281 43.824218-42.332031 0-10.078125-1.3125-20.136719-3.90625-29.898438-.03125-.125-.0625-.257812-.082031-.386719l-19.140625-118.292968zm0 0" fill="#3762cc"/><path d="m272.570312 460.015625c-.019531-.402344-.050781-.800781-.078124-1.203125-.046876-.773438-.101563-1.550781-.171876-2.320312-.042968-.480469-.101562-.957032-.15625-1.433594-.074218-.679688-.15625-1.359375-.25-2.035156-.074218-.515626-.148437-1.027344-.230468-1.539063-.101563-.625-.210938-1.246094-.324219-1.863281-.101563-.542969-.203125-1.078125-.3125-1.613282-.121094-.570312-.25-1.128906-.382813-1.691406-.128906-.574218-.261718-1.144531-.40625-1.710937-.117187-.460938-.253906-.914063-.378906-1.371094-.6875-2.480469-1.496094-4.910156-2.421875-7.277344-.078125-.203125-.148437-.402343-.230469-.601562-.3125-.785157-.648437-1.558594-.984374-2.328125-.097657-.21875-.1875-.4375-.285157-.652344-.355469-.785156-.722656-1.558594-1.101562-2.328125-.085938-.171875-.171875-.34375-.257813-.515625-.410156-.816406-.832031-1.625-1.269531-2.421875-.039063-.070313-.078125-.140625-.117187-.210937-12.472657-22.578126-36.082032-38.144532-63.429688-39.257813l-.1875.238281h.140625l-8.929687 23.523438c-2.152344 5.667968-7.585938 9.417968-13.648438 9.417968h-53.527344c-6.0625 0-11.496094-3.75-13.648437-9.417968l-7.75-20.425782c-.542969-.972656-.941407-2.011718-1.175781-3.097656v-.003906c-21.546876 1.898438-40.503907 12.789062-53.117188 28.882812h-.011719c-.046875.0625-.09375.125-.136719.1875-.414062.527344-.8125 1.066407-1.210937 1.605469-.246094.335938-.492187.667969-.734375 1.007813-.378906.527344-.746094 1.066406-1.109375 1.605468-.246094.363282-.488281.726563-.726563 1.09375-.347656.535157-.6875 1.070313-1.023437 1.617188-.238281.386719-.46875.777344-.703125 1.171875-.316406.539063-.632812 1.078125-.9375 1.625-.230469.414063-.449219.832031-.671875 1.25-.289063.542969-.582031 1.082031-.855469 1.636719-.222656.441406-.429687.890625-.644531 1.335937-.257813.539063-.519531 1.074219-.765625 1.621094-.242188.53125-.460938 1.074219-.6875 1.613281-.359375.859375-.710938 1.730469-1.039062 2.601563-.226563.597656-.457032 1.191406-.667969 1.800781-.164063.476562-.316407.960938-.472657 1.445312-.191406.582032-.386718 1.164063-.5625 1.757813-.144531.488281-.277343.980469-.414062 1.472656-.167969.59375-.332031 1.1875-.480469 1.789063-.125.496094-.242187.992187-.355469 1.488281-.140624.613281-.273437 1.230469-.402343 1.847656-.097657.492188-.195313.984375-.285157 1.480469-.117187.640625-.222656 1.28125-.324218 1.929688-.078125.480468-.152344.960937-.21875 1.445312-.09375.683594-.171875 1.371094-.25 2.058594-.046875.457031-.101563.910156-.144532 1.367187-.070312.765625-.121093 1.539063-.164062 2.308594-.027344.390625-.058594.773437-.074219 1.164063-.054687 1.164062-.085937 2.332031-.085937 3.507812v15.214844h240.882812v-15.214844c-.003906-1.203125-.035156-2.390625-.089844-3.578125zm0 0" fill="#6bdddd"/><path d="m113.554688 420.820312h73.671874l12.503907-32.941406h-.082031c.214843-.855468.359374-1.726562.359374-2.621094v-20.691406c-14.847656 7.730469-31.714843 12.113282-49.617187 12.113282s-34.765625-4.382813-49.613281-12.113282v20.753906c0 .867188.136718 1.71875.339844 2.554688h-.066407zm0 0" fill="#f9cfcf"/><path d="m258.738281 228.058594c-.230469 0-.449219.027344-.679687.03125v-10.171875c0-59.460938-48.203125-107.664063-107.664063-107.664063-59.460937 0-107.667969 48.203125-107.667969 107.664063v10.171875c-.226562-.003906-.449218-.03125-.679687-.03125-18.140625 0-32.847656 14.703125-32.847656 32.847656 0 18.140625 14.707031 32.847656 32.847656 32.847656 1.191406 0 2.367187-.074218 3.523437-.195312 11.113282 47.632812 53.808594 83.125 104.824219 83.125s93.714844-35.496094 104.824219-83.125c1.160156.125 2.332031.195312 3.523438.195312 18.144531 0 32.847656-14.707031 32.847656-32.847656-.003906-18.144531-14.707032-32.847656-32.851563-32.847656zm0 0" fill="#f9cfcf"/><g fill="#3762cc"><path d="m150.390625 380.683594c-51.035156 0-94.929687-33.933594-107.902344-82.933594-.148437 0-.296875.003906-.445312.003906-20.316407 0-36.847657-16.53125-36.847657-36.847656 0-19.199219 14.761719-35.015625 33.527344-36.699219v-6.289062c0-61.574219 50.09375-111.667969 111.667969-111.667969 61.570313 0 111.664063 50.09375 111.664063 111.667969v6.289062c18.769531 1.683594 33.527343 17.5 33.527343 36.699219 0 20.316406-16.527343 36.847656-36.847656 36.847656-.148437 0-.292969-.003906-.445313-.003906-12.964843 49-56.859374 82.933594-107.898437 82.933594zm-104.820313-91.125c1.839844 0 3.46875 1.265625 3.894532 3.089844 10.992187 47.125 52.496094 80.035156 100.925781 80.035156 48.433594 0 89.9375-32.910156 100.929687-80.035156.457032-1.964844 2.300782-3.273438 4.316407-3.070313 1.09375.121094 2.109375.175781 3.101562.175781 15.90625 0 28.847657-12.941406 28.847657-28.847656 0-15.898438-12.925782-28.835938-28.820313-28.847656-.28125.019531-.441406.027344-.605469.03125-1.082031.085937-2.121094-.375-2.890625-1.128906-.773437-.753907-1.210937-1.789063-1.210937-2.867188v-10.175781c0-57.160157-46.503906-103.664063-103.664063-103.664063-57.164062 0-103.667969 46.503906-103.667969 103.664063v10.175781c0 1.078125-.433593 2.113281-1.207031 2.867188-.773437.753906-1.796875 1.210937-2.894531 1.128906-.164062-.003906-.324219-.011719-.488281-.023438-.003907 0-.007813 0-.011719 0-15.992188 0-28.925781 12.9375-28.925781 28.839844 0 15.90625 12.941406 28.847656 28.847656 28.847656.992187 0 2.007813-.054687 3.101563-.175781.140624-.011719.285156-.019531.421874-.019531zm0 0"/><path d="m272.65625 482.804688h-240.878906c-2.210938 0-4-1.792969-4-4v-15.214844c0-1.238282.03125-2.464844.085937-3.691406.011719-.273438.03125-.542969.050781-.8125l.027344-.410157c.050782-.808593.101563-1.625.175782-2.429687.03125-.359375.074218-.707032.113281-1.058594l.042969-.378906c.078124-.726563.160156-1.449219.257812-2.167969.066406-.480469.140625-.957031.214844-1.433594.121094-.769531.234375-1.449219.355468-2.125.097657-.519531.195313-1.035156.300782-1.550781.132812-.65625.273437-1.304688.425781-1.953125.121094-.519531.238281-1.039063.371094-1.5625.160156-.632813.332031-1.257813.507812-1.882813l.082031-.304687c.117188-.417969.234376-.832031.355469-1.246094.160157-.53125.332031-1.050781.5-1.578125l.238281-.726562c.113282-.355469.230469-.710938.351563-1.066406.179687-.507813.371094-1.007813.558594-1.507813l.144531-.382813c.347656-.925781.714844-1.839843 1.097656-2.746093l.152344-.363281c.183594-.449219.371094-.890626.566406-1.332032.195313-.429687.398438-.859375.605469-1.289062l.375-.785156c.164063-.347657.332031-.699219.503906-1.042969.253907-.507813.519531-1.007813.789063-1.507813l.226562-.425781c.199219-.371094.394532-.742187.597656-1.105469.316407-.570312.648438-1.136718.980469-1.707031.246094-.414063.492188-.820313.742188-1.230469.351562-.578125.710937-1.144531 1.078125-1.707031.25-.386719.503906-.769531.761718-1.152344.386719-.566406.773438-1.132812 1.171876-1.691406.222656-.316406.457031-.632813.695312-.953125.492188-.667969.914062-1.238281 1.347656-1.796875l.128906-.175781c.058594-.070313.117188-.144532.179688-.210938 12.808594-16.238281 31.519531-26.9375 51.839844-29.761718v-19.769532c0-1.398437.726562-2.695312 1.921875-3.417968 1.199219-.726563 2.683593-.773438 3.921875-.128907 14.863281 7.738281 30.933594 11.664063 47.769531 11.664063 16.832031 0 32.902344-3.925782 47.765625-11.664063 1.242188-.640625 2.730469-.597656 3.921875.128907 1.195313.722656 1.925781 2.019531 1.925781 3.417968v19.347656c26.144532 2.4375 49.90625 17.890626 62.703125 41.050782 0 .003906.121094.21875.125.222656.460938.839844.902344 1.691406 1.332031 2.546875l.277344.554687c.394532.792969.785156 1.613282 1.15625 2.441407l.296875.679687c.359375.816406.710938 1.632813 1.042969 2.457032l.234375.609374c.980469 2.503907 1.835937 5.085938 2.558594 7.6875l.105469.378907c.101562.355469.203124.707031.292968 1.066406.125.484375.238282.976563.351563 1.464844l.078125.332031c.136718.589844.273437 1.179688.398437 1.773438.121094.570312.226563 1.136718.332031 1.703124.121094.65625.234376 1.304688.339844 1.960938.085938.542969.167969 1.082031.246094 1.628906.097656.707032.183594 1.417969.265625 2.136719l.023437.207031c.046876.429688.097657.863282.136719 1.296875.078125.8125.132813 1.628907.183594 2.445313l.03125.4375c.019531.277344.035156.554687.050781.832031.058594 1.246094.089844 2.496094.089844 3.757813v15.214843c0 2.210938-1.789062 4.003907-4 4.003907zm-236.878906-8h232.878906v-11.214844c0-1.132813-.03125-2.265625-.082031-3.386719l-.074219-1.144531c-.046875-.726563-.09375-1.464844-.164062-2.199219-.035157-.375-.078126-.757813-.121094-1.136719l-.023438-.214844c-.074218-.648437-.152344-1.292968-.242187-1.933593-.066407-.488281-.140625-.972657-.21875-1.457031-.09375-.589844-.195313-1.179688-.308594-1.765626-.09375-.507812-.1875-1.023437-.292969-1.53125-.113281-.527343-.238281-1.0625-.359375-1.597656l-.082031-.339844c-.097656-.429687-.199219-.855468-.304688-1.28125-.078124-.292968-.160156-.585937-.242187-.875l-.117187-.417968c-.652344-2.347656-1.421876-4.667969-2.296876-6.898438l-.214843-.566406c-.296875-.746094-.617188-1.476562-.9375-2.207031l-.265625-.605469c-.339844-.753906-.6875-1.488281-1.046875-2.214844l-.246094-.496094c-.386719-.765624-.785156-1.53125-1.199219-2.289062l3.390625-2.132812-3.5 1.933593c-12.023437-21.757812-34.792969-35.960937-59.53125-37.171875-.730469.097656-1.492187-.007812-2.1875-.34375-1.699219-.816406-2.652343-2.640625-2.207031-4.472656.152344-.640625.222656-1.144531.222656-1.585938v-14.3125c-14.273437 6.382813-29.914062 9.738282-45.613281 9.738282-15.703125 0-31.34375-3.355469-45.617187-9.738282v14.375c0 .457032.074218.96875.230468 1.617188.289063 1.195312.011719 2.453125-.746094 3.414062-.730468.929688-1.832031 1.480469-3.003906 1.523438-19.652344 1.769531-37.933594 11.734375-50.175781 27.351562-.035156.046876-.070313.089844-.109375.136719l-.023438.03125c-.394531.507813-.773437 1.015625-1.148437 1.527344-.292969.398437-.496094.671875-.695313.953125-.367187.511719-.714843 1.019531-1.058593 1.53125-.230469.34375-.460938.691406-.6875 1.042969-.328125.5-.652344 1.011719-.96875 1.527343-.222657.363282-.445313.734376-.664063 1.105469-.300781.511719-.601562 1.027344-.890625 1.542969-.179687.320312-.347656.636719-.515625.957031l-.234375.4375c-.234375.445313-.46875.886719-.695312 1.332031-.148438.292969-.285157.585938-.425781.882813l-.394532.824219c-.171875.363281-.347656.726562-.511718 1.09375-.171876.378906-.328126.757812-.488282 1.140625l-.164062.386719c-.34375.816406-.671875 1.636718-.984375 2.464843l-.148438.394531c-.167969.433594-.332031.871094-.488281 1.308594-.097656.289063-.195312.582032-.289062.878906l-.25.765626c-.152344.460937-.300782.921874-.441407 1.386718-.105469.359375-.207031.714844-.304687 1.078125l-.085938.3125c-.15625.5625-.3125 1.128907-.457031 1.699219-.117187.464844-.226563.9375-.332031 1.40625-.136719.585938-.261719 1.171875-.382813 1.757812-.09375.457032-.183593.925782-.269531 1.394532-.113281.605468-.214844 1.210937-.308594 1.824218-.082031.519532-.148437.949219-.207031 1.375-.089844.648438-.164063 1.300782-.234375 1.949219l-.140625 1.296875c-.066406.722656-.113281 1.457032-.160156 2.1875l-.066407 1.101563c-.050781 1.105469-.082031 2.214843-.082031 3.328125v11.214844zm0 0"/><path d="m173.851562 325c-2.207031 0-4-1.789062-4-4 0-6.308594-8.910156-11.636719-19.460937-11.636719-10.546875 0-19.457031 5.328125-19.457031 11.636719 0 2.210938-1.792969 4-4 4-2.210938 0-4-1.789062-4-4 0-11.011719 12.058594-19.636719 27.457031-19.636719s27.460937 8.625 27.460937 19.636719c0 2.210938-1.789062 4-4 4zm0 0"/></g><path d="m140.328125 213.324219h-121.808594c-1.632812 0-2.953125-1.320313-2.953125-2.949219v-33.84375c0-57.222656 46.390625-103.613281 103.613282-103.613281h21.148437c37.210937 0 67.375 30.164062 67.375 67.375v5.65625c0 37.210937-30.164063 67.375-67.375 67.375zm0 0" fill="#4671c6"/><path d="m280.324219 227.257812h-22.835938c-37.792969 0-68.433593-30.636718-68.433593-68.433593v-66.34375h11.675781c47.097656 0 85.277343 38.179687 85.277343 85.277343v43.816407c0 3.136719-2.542968 5.683593-5.683593 5.683593zm0 0" fill="#4671c6"/><path d="m280.324219 231.257812h-22.835938c-26.796875 0-51.160156-14.71875-63.734375-38-13.472656 15.171876-33.003906 24.066407-53.425781 24.066407h-121.808594c-3.835937 0-6.953125-3.117188-6.953125-6.953125v-33.839844c0-59.339844 48.273438-107.617188 107.613282-107.617188h21.148437c18.472656 0 35.757813 6.921876 49.066406 19.5625h11.335938c49.226562 0 89.277343 40.050782 89.277343 89.28125v43.8125c0 5.34375-4.34375 9.6875-9.683593 9.6875zm-85.714844-49.40625c.152344 0 .304687.007813.457031.027344 1.421875.164063 2.652344 1.074219 3.21875 2.390625 10.191406 23.6875 33.433594 38.988281 59.203125 38.988281h22.835938c.929687 0 1.683593-.757812 1.683593-1.683593v-43.816407c0-44.816406-36.457031-81.277343-81.277343-81.277343h-8.710938c-.398437.4375-.898437.789062-1.472656 1.023437-1.519531.609375-3.25.230469-4.382813-.953125-12.085937-12.660156-28.363281-19.632812-45.835937-19.632812h-21.148437c-54.929688 0-99.613282 44.683593-99.613282 99.613281v32.792969h120.761719c20.054687 0 39.144531-9.660157 51.0625-25.84375.757813-1.03125 1.957031-1.628907 3.21875-1.628907zm0 0" fill="#3762cc"/><path d="m85.585938 262.238281c-2.390626 0-4.714844-.261719-6.902344-.792969-6.515625-1.589843-11.152344-5.339843-13.050782-10.5625-.757812-2.074218.3125-4.375 2.390626-5.128906 2.078124-.753906 4.371093.316406 5.125 2.394532 1.292968 3.546874 5.207031 4.980468 7.425781 5.523437 4.347656 1.058594 9.757812.609375 14.839843-1.242187 9.910157-3.609376 16.464844-11.664063 14.304688-17.59375-.753906-2.074219.316406-4.371094 2.390625-5.125 2.078125-.753907 4.371094.316406 5.125 2.390624 3.765625 10.347657-4.617187 22.578126-19.085937 27.847657-4.175782 1.515625-8.472657 2.289062-12.5625 2.289062zm0 0" fill="#3762cc"/><path d="m216.550781 262.238281c-4.09375 0-8.386719-.773437-12.566406-2.292969-14.46875-5.265624-22.855469-17.496093-19.085937-27.847656.753906-2.074218 3.046874-3.144531 5.125-2.390625 2.078124.757813 3.144531 3.050781 2.390624 5.125-2.160156 5.929688 4.394532 13.988281 14.304688 17.597657 5.082031 1.847656 10.492188 2.300781 14.839844 1.238281 2.222656-.539063 6.136718-1.972657 7.425781-5.523438.753906-2.074219 3.046875-3.148437 5.128906-2.390625 2.074219.753906 3.144531 3.050782 2.386719 5.125-1.898438 5.222656-6.535156 8.972656-13.046875 10.5625-2.1875.535156-4.511719.796875-6.902344.796875zm0 0" fill="#3762cc"/><path d="m60.5625 274.34375c-1.121094 1.738281-1.785156 3.824219-1.816406 6.070312-.078125 5.921876 4.425781 10.984376 10.070312 11.292969 6.140625.335938 11.21875-4.777343 11.21875-11.132812 0-2.308594-.671875-4.449219-1.816406-6.230469l-.003906-.003906-7.9375-12.527344c-.421875-.664062-1.351563-.664062-1.773438 0l-7.9375 12.527344s0 0-.003906 0zm0 0" fill="#e0ebfc"/><path d="m475.835938 106.832031c4.726562-9.425781-6.890626-12.613281-6.890626-12.613281-16.480468-3.414062-31.925781-11.882812-43.800781-25.335938-13.472656-15.265624-20.03125-34.292968-19.984375-53.394531.011719-4.234375-4.226562-7.042969-8.15625-5.316406-4.390625 1.933594-8.804687 3.761719-9.320312 3.976563-.003906 0-.003906.003906-.007813.003906-13.949219 4.308594-26.261719 4.476562-26.261719 4.476562s.003907-.003906.003907-.003906c-17.742188.886719-35.5-3.894531-50.367188-14.179688l-.015625.011719c-3.640625-1.820312-4.847656 2.355469-4.847656 2.355469-.789062 6.625-1.839844 10-1.839844 10-4.007812 16.09375-12.832031 31.28125-26.332031 43.195312-16.414063 14.488282-36.761719 21.511719-56.808594 21.351563l.011719.023437c-5.460938 1.886719-2.921875 6.195313-2.921875 6.195313l-.011719.007813c15.09375 27.738281 12.445313 62.347656-6.765625 88.390624h.019531c-.929687 5.070313 4.003907 5.378907 4.003907 5.378907l-.003907.019531c19.824219 1.847656 38.851563 10.785156 52.886719 26.6875 11.621094 13.167969 18.070313 29.132812 19.597657 45.527344h.015624s.558594 3.367187.296876 10.175781h.007812s1.160156 4.542969 5.796875 3.28125l.003906.039063c23.894531-13.507813 52.453125-14.457032 76.257813-3.265626 2.648437 1.335938 5.226562 2.839844 7.734375 4.480469l.003906-.011719s4.25 2.21875 6.710937-2.453124c.050782-.414063.109376-.832032.167969-1.253907-.003906-.015625-.011719-.035156-.019531-.054687.039062-.222656.089844-.445313.128906-.667969.246094-1.644531.539063-3.273437.882813-4.648437l.003906.003906c.714844-3.371094 1.386719-5.457032 1.386719-5.457032h.003906c.765625-2.613281 3.621094-4.042968 6.125-3.070312l67.257812 26.222656s6.824219.546875 7.308594-6.453125l-17.851562-70.746093c-.667969-2.644532 1.105468-5.367188 3.824218-5.859376 3.347657-.605468 6.71875-.976562 10.085938-1.179687v-.023437s10.515625-1.824219 7.132812-10.9375c-10.582031-23.894532-8.808593-51.847657 4.5625-74.863282zm0 0" fill="#ffea92"/><path d="m406.402344 196.371094c-6.300782-11.683594 3.804687-21.332032 15.660156-15.492188.796875.394532 1.453125 1.03125 1.839844 1.785156 5.414062 10.539063-2.484375 20.574219-15.347656 15.566407-.929688-.359375-1.703126-1.027344-2.152344-1.859375zm2.417968-34.730469-2.242187-70.570313c-.074219-2.402343 2.023437-4.386718 4.640625-4.386718h7.664062c2.613282 0 4.714844 1.984375 4.636719 4.386718l-2.238281 70.570313c-.074219 2.304687-2.128906 4.136719-4.640625 4.136719h-3.183594c-2.507812 0-4.5625-1.832032-4.636719-4.136719zm0 0" fill="#f9a7a7"/><path d="m379.640625 131.597656-1.015625-.472656c-2.636719-1.214844-6.164062-1.914062-9.679688-1.914062-11.878906 0-21.542968 9.664062-21.542968 21.539062 0 7.964844 5.332031 12.128906 10.601562 12.128906 4.5625 0 8.269532-1.761718 11.246094-5.371094.421875 1.4375 1.121094 2.4375 1.753906 3.105469 1.390625 1.460938 3.371094 2.265625 5.574219 2.265625 8.21875 0 16.535156-7.429687 16.535156-21.628906 0-15.277344-10.742187-25.949219-26.121093-25.949219-18.46875 0-32.398438 14.621094-32.398438 34.007813 0 16.167968 11.414062 27.902344 27.136719 27.902344 6.238281 0 11.101562-1.09375 15.769531-3.558594l1.121094-.589844-2.386719-6.40625-1.464844.820312c-3.203125 1.796876-7.5 2.785157-12.105469 2.785157-12.175781 0-20.355468-8.625-20.355468-21.460938 0-15.480469 10.09375-26.71875 24.003906-26.71875 11.769531 0 19.082031 7.542969 19.082031 19.679688 0 9.191406-4.425781 14.082031-7.675781 14.082031-.621094-.019531-.890625-.253906-1.050781-.457031-.378907-.476563-1.144531-2.140625-.121094-7.335938zm-19.601563 23.824219c-3.617187 0-4.15625-3.136719-4.15625-5.007813 0-7.492187 5.515626-13.824218 12.042969-13.824218.894531 0 1.757813.078125 2.578125.230468l-1.535156 8.253907c-.847656 4.785156-4.933594 10.347656-8.929688 10.347656zm0 0" fill="#f9a7a7"/><path d="m291.855469 162.347656h-8.277344c-2.078125 0-3.875 1.453125-4.316406 3.484375l-2.027344 9.375c-.4375 2.035157-2.238281 3.484375-4.316406 3.484375h-.589844c-2.816406 0-4.914063-2.601562-4.320313-5.351562l1.222657-5.640625c.59375-2.75-1.503907-5.351563-4.320313-5.351563h-3.796875c-2.441406 0-4.417969-1.976562-4.417969-4.417968 0-2.441407 1.976563-4.417969 4.417969-4.417969h7.554688c2.085937 0 3.886719-1.457031 4.320312-3.496094l1.378907-6.445313c.589843-2.75-1.507813-5.34375-4.320313-5.34375h-3.722656c-2.441407 0-4.417969-1.976562-4.417969-4.417968 0-2.4375 1.976562-4.417969 4.417969-4.417969h7.472656c2.082031 0 3.882813-1.457031 4.320313-3.492187l1.945312-9.09375c.4375-2.039063 2.238281-3.492188 4.320312-3.492188h.59375c2.8125 0 4.910157 2.59375 4.320313 5.34375l-1.15625 5.390625c-.589844 2.75 1.507813 5.34375 4.320313 5.34375h8.28125c2.082031 0 3.882812-1.457031 4.320312-3.492187l1.945312-9.09375c.4375-2.039063 2.238282-3.492188 4.320313-3.492188h.59375c2.8125 0 4.910156 2.59375 4.320313 5.34375l-1.15625 5.390625c-.589844 2.75 1.511718 5.34375 4.320312 5.34375h1.871094c2.4375 0 4.417968 1.980469 4.417968 4.417969 0 2.441406-1.980468 4.417968-4.417968 4.417968h-5.617188c-2.085937 0-3.882812 1.457032-4.320312 3.496094l-1.378906 6.445313c-.585938 2.75 1.507812 5.34375 4.320312 5.34375h1.78125c2.441406 0 4.417969 1.976562 4.417969 4.417969 0 2.441406-1.976563 4.417968-4.417969 4.417968h-5.53125c-2.082031 0-3.878906 1.453125-4.320312 3.484375l-2.027344 9.375c-.441406 2.035157-2.238282 3.484375-4.316406 3.484375h-.589844c-2.816406 0-4.914063-2.601562-4.320313-5.351562l1.21875-5.640625c.59375-2.75-1.503906-5.351563-4.320312-5.351563zm5.136719-24.117187h-8.277344c-2.085938 0-3.886719 1.453125-4.320313 3.492187l-1.378906 6.449219c-.589844 2.75 1.507813 5.339844 4.320313 5.339844h8.28125c2.082031 0 3.882812-1.453125 4.320312-3.492188l1.375-6.449219c.589844-2.75-1.507812-5.339843-4.320312-5.339843zm0 0" fill="#f9a7a7"/><path d="m467.183594 344.9375c.132812.132812.265625.269531.398437.402344v-.050782l-.527343-.496093c-.371094-.375-.769532-.722657-1.15625-1.082031l-31.238282-29.183594c-6.273437-5.867188-14.832031-9.164063-23.761718-9.164063h-66.339844c-5.015625 0-9.113282 3.75-9.121094 8.378907-.027344 11 9.628906 19.921874 21.539062 19.921874h-76.433593c-7.191407 0-13.023438 5.832032-13.023438 13.023438s5.832031 13.023438 13.023438 13.023438h63.039062c-4.453125 0-8.0625 3.609374-8.0625 8.058593v9.921875c0 4.453125 3.609375 8.0625 8.0625 8.0625-4.453125 0-8.0625 3.609375-8.0625 8.0625v9.917969c0 4.453125 3.609375 8.0625 8.0625 8.0625-4.453125 0-8.0625 3.609375-8.0625 8.0625v9.921875c0 4.449219 3.609375 8.058594 8.0625 8.058594h96.867188c20.65625 0 37.402343-16.746094 37.402343-37.402344v-29.363281c0-10.179688-4.074218-19.394531-10.667968-26.136719zm0 0" fill="#f9cfcf"/><path d="m461.097656 280.917969c-.3125 0-.527344-.011719-.613281-.019531-.394531-.027344-.777344-.117188-1.148437-.261719l-67.257813-26.21875c-.175781-.066407-.351563-.019531-.460937.039062-.109376.046875-.296876.175781-.371094.429688-.015625.050781-.03125.109375-.050782.164062-.0625.195313-.644531 2.074219-1.261718 5-.316406 1.25-.585938 2.683594-.84375 4.40625l-.074219.390625c-.007813.101563-.015625.203125-.03125.300782l-.164063 1.203124c-.058593.472657-.203124.933594-.425781 1.355469-3.039062 5.769531-8.496093 5.777344-11.703125 4.324219-.257812-.101562-.503906-.226562-.742187-.378906-2.453125-1.605469-4.921875-3.039063-7.34375-4.257813-22.824219-10.730469-49.960938-9.5625-72.488281 3.175781-.507813.289063-1.0625.457032-1.625.503907-2.703126.546875-4.71875-.15625-5.964844-.878907-2.582032-1.507812-3.617188-4.027343-3.949219-5.066406-.175781-.480468-.257813-.992187-.238281-1.511718.199218-5.210938-.109375-8.265626-.214844-9.128907-.039062-.171875-.066406-.34375-.082031-.523437-1.507813-16.207032-7.945313-31.160156-18.617188-43.25-12.816406-14.527344-30.667969-23.53125-50.261719-25.355469-.171874-.015625-.339843-.042969-.503906-.078125-1.253906-.191406-3.8125-.847656-5.597656-3.121094-.964844-1.238281-1.992188-3.355468-1.527344-6.507812.054688-.726563.3125-1.4375.765625-2.046875 18.261719-24.753907 20.800781-57.765625 6.46875-84.101563-.066406-.125-.128906-.253906-.183593-.382812-.53125-1.105469-1.445313-3.621094-.421876-6.398438.574219-1.566406 1.960938-3.664062 5.292969-4.953125.542969-.265625 1.128907-.359375 1.78125-.40625 19.820313.152344 39.082031-7.066406 54.128907-20.347656 12.449218-10.988281 21.125-25.222656 25.09375-41.164063.019531-.078124.039062-.15625.066406-.234374.058594-.203126.976562-3.347657 1.683594-9.273438.023437-.214844.066406-.429688.125-.636719.183593-.628906 1.238281-3.808593 4.308593-5.152343 1.269531-.554688 3.277344-.960938 5.757813.132812.324218.117188.632812.273438.917968.472656 13.796876 9.542969 30.816407 14.308594 47.894532 13.472656.109375-.007812.214844-.007812.320312-.003906 1.535156-.046875 12.554688-.492187 24.777344-4.242187.964844-.398438 5.027344-2.089844 9.074219-3.871094 3.082031-1.359375 6.582031-1.085937 9.351562.730469 2.777344 1.816406 4.425781 4.902344 4.417969 8.253906-.046875 18.792969 6.691406 36.8125 18.980469 50.738281 10.917969 12.367188 25.308593 20.6875 41.613281 24.066407.082031.015624.164062.035156.246094.058593.761718.207031 7.523437 2.207031 10.050781 7.878907.945313 2.128906 1.617187 5.554687-.421875 9.933593-.082031.230469-.1875.460938-.316406.683594-12.757813 21.957031-14.390625 48.589844-4.363282 71.230469.035157.074218.0625.148437.09375.226562 1.714844 4.621094.707032 7.96875-.441406 9.964844-2.488281 4.332031-7.503906 5.808594-9.226562 6.199219-.3125.101562-.640625.164062-.980469.183593-3.355469.199219-6.589844.574219-9.613281 1.125-.300782.050782-.472656.257813-.546875.375-.066407.105469-.171875.316407-.109375.5625l17.851562 70.75c.101563.410157.140625.835938.113282 1.257813-.277344 3.972656-2.070313 6.3125-3.53125 7.570313-2.707032 2.347656-6.066407 2.613281-7.457032 2.613281zm-69.199218-34.53125c1.050781 0 2.09375.191406 3.085937.578125l66.589844 25.957031c1.871093-.089844 2.335937-1.300781 2.476562-2.167969l-17.679687-70.066406c-.585938-2.320312-.171875-4.816406 1.136718-6.855469 1.324219-2.050781 3.457032-3.480469 5.851563-3.917969 3.203125-.578124 6.609375-.984374 10.125-1.207031 1.019531-.195312 3.410156-1.046875 4.1875-2.421875.15625-.273437.621094-1.09375-.09375-3.082031-10.941406-24.8125-9.21875-53.917969 4.59375-77.972656.027344-.066407.058594-.128907.085937-.191407 1.09375-2.175781.636719-3.203124.484376-3.539062-.835938-1.882812-3.863282-3.121094-4.761719-3.394531-17.949219-3.753907-33.796875-12.941407-45.835938-26.574219-13.582031-15.394531-21.035156-35.296875-20.984375-56.050781.003906-.886719-.496094-1.34375-.792968-1.542969-.300782-.191406-.921876-.460938-1.75-.105469-4.433594 1.953125-8.886719 3.800781-9.40625 4.015625-.113282.046875-.234376.089844-.351563.125-14.335937 4.429688-26.863281 4.648438-27.386719 4.65625-.023437 0-.046875-.003906-.070312 0-18.253906.878906-36.449219-4.121094-51.402344-14.066406-.71875 5.480469-1.59375 8.628906-1.792969 9.308594-4.375 17.484375-13.894531 33.089844-27.542969 45.132812-16.308593 14.398438-37.101562 22.316406-58.628906 22.355469-.128906.0625-.226562.117187-.296875.160156.003907.019531.003907.027344.003907.027344.085937.136719.15625.285156.222656.429687 15.417968 28.621094 12.875 64.273438-6.441406 91.296876.113281.042968.253906.078124.363281.09375.183593.011718.367187.035156.546875.070312 21.421875 2.128906 40.9375 12.046875 54.992187 27.976562 11.71875 13.28125 18.820313 29.675782 20.546875 47.445313.003906.027344.007813.050781.011719.078125.0625.371094.570313 3.671875.378906 10.105469.0625.101562.132813.191406.183594.226562 0-.003906.085937.007813.265625-.027343 24.65625-13.671876 54.242188-14.824219 79.296875-3.042969 2.679687 1.347656 5.3125 2.867187 7.917969 4.554687.414062.175782.675781.132813.96875-.261718l.007812-.054688c.003906-.171875.019532-.347656.042969-.519531.03125-.183594.066406-.371094.101563-.554688.316406-2.0625.640624-3.753906.980468-5.121093.722656-3.390626 1.433594-5.621094 1.464844-5.710938.65625-2.234375 2.304688-4.1875 4.492188-5.261719 1.199218-.585937 2.507812-.882812 3.8125-.882812zm-6.894532 18.144531h.019532zm0 0" fill="#3762cc"/><path d="m440.449219 441.835938h-96.871094c-6.648437 0-12.058594-5.410157-12.058594-12.058594v-9.917969c0-3.097656 1.171875-5.925781 3.097657-8.0625-1.925782-2.136719-3.097657-4.964844-3.097657-8.0625v-9.917969c0-3.097656 1.171875-5.925781 3.097657-8.0625-1.925782-2.136718-3.097657-4.964844-3.097657-8.0625v-9.921875c0-1.421875.246094-2.789062.703125-4.058593h-51.683594c-9.386718 0-17.019531-7.636719-17.019531-17.023438 0-9.382812 7.632813-17.019531 17.019531-17.019531h57.355469c-4.183593-4.390625-6.476562-10.027344-6.460937-15.933594.015625-6.820313 5.902344-12.371094 13.125-12.371094h66.335937c9.875 0 19.527344 3.730469 26.496094 10.238281l31.554687 29.476563c.324219.296875.648438.59375.957032.90625l.410156.378906c.210938.199219.394531.414063.554688.644531 7.089843 7.675782 10.984374 17.59375 10.984374 28.058594v29.363282c0 22.832031-18.574218 41.40625-41.402343 41.40625zm-96.867188-26.042969c-2.242187 0-4.0625 1.824219-4.0625 4.0625v9.921875c0 2.234375 1.820313 4.058594 4.0625 4.058594h96.867188c18.417969 0 33.40625-14.984376 33.40625-33.40625v-29.363282c0-8.761718-3.386719-17.050781-9.53125-23.335937-.058594-.058594-.113281-.121094-.167969-.179688-.238281-.234375-.414062-.394531-.59375-.554687l-.390625-.359375-31.242187-29.191407c-5.5-5.140624-13.164063-8.085937-21.035157-8.085937h-66.335937c-2.820313 0-5.121094 1.964844-5.125 4.386719-.007813 3.953125 1.597656 7.738281 4.523437 10.671875 3.324219 3.332031 8.070313 5.242187 13.019531 5.242187 2.207032 0 4 1.792969 4 4 0 2.210938-1.792968 4-4 4h-76.4375c-4.972656 0-9.019531 4.046875-9.019531 9.023438 0 4.976562 4.042969 9.023437 9.019531 9.023437h63.039063c2.210937 0 4 1.789063 4 4 0 2.207031-1.789063 4-4 4-2.238281 0-4.058594 1.820313-4.058594 4.058594v9.917969c0 2.242187 1.820313 4.0625 4.058594 4.0625 2.210937 0 4 1.792968 4 4 0 2.210937-1.789063 4-4 4-2.238281 0-4.058594 1.824218-4.058594 4.0625v9.921875c0 2.238281 1.820313 4.058593 4.058594 4.058593 2.210937 0 4 1.792969 4 4 0 2.207032-1.789063 4.003907-3.996094 4.003907zm0 0" fill="#3762cc"/><path d="m400.308594 337.664062h-43.332032c-2.207031 0-4-1.789062-4-4 0-2.207031 1.792969-4 4-4h43.332032c2.210937 0 4 1.792969 4 4 0 2.210938-1.789063 4-4 4zm0 0" fill="#3762cc"/></svg>